<svg width="47" height="14" viewBox="0 0 47 14" fill="none" xmlns="http://www.w3.org/2000/svg">
<path fill-rule="evenodd" clip-rule="evenodd" d="M4.31542 0.335516C4.73233 0.333022 5.97138 0.221426 6.49621 1.99275C6.84975 3.18593 7.41291 5.14042 8.18569 7.85621H8.50042C9.32916 4.99303 9.89847 3.03854 10.2083 1.99275C10.7386 0.202975 12.0644 0.335551 12.5947 0.335551L16.6861 0.335556V13.0628H12.516V5.56242H12.2364L9.91178 13.0628H6.77433L4.44971 5.55686H4.17008V13.0628H0V0.335556L4.31542 0.335516ZM22.6743 0.335556V7.84152H23.0069L25.8346 1.66942C26.3835 0.441153 27.5534 0.335556 27.5534 0.335556H31.5888V13.0628H27.3316V5.55686H26.999L24.2267 11.729C23.6778 12.9517 22.4525 13.0628 22.4525 13.0628H18.4171V0.335556H22.6743ZM46.3035 6.38364C45.7096 8.06641 43.8448 9.27157 41.7801 9.27157H37.3156V13.0628H33.2673V6.38364H46.3035Z" fill="#0F754E"/>
<path fill-rule="evenodd" clip-rule="evenodd" d="M41.9754 0.335571H33.0551C33.2673 3.16909 35.7075 5.59477 38.2336 5.59477H46.5848C47.0667 3.23978 45.4077 0.335571 41.9754 0.335571Z" fill="url(#paint0_linear_461_6)"/>
<defs>
<linearGradient id="paint0_linear_461_6" x1="46.6667" y1="3.64384" x2="33.0551" y2="3.64384" gradientUnits="userSpaceOnUse">
<stop stop-color="#1F5CD7"/>
<stop offset="1" stop-color="#02AEFF"/>
</linearGradient>
</defs>
</svg>
