<svg width="7" height="11" viewBox="0 0 7 11" fill="none" xmlns="http://www.w3.org/2000/svg">
<path d="M0.978516 3.34766H2.47021C2.521 2.56055 3.04785 2.05908 3.8667 2.05908C4.6665 2.05908 5.19971 2.54785 5.19971 3.2207C5.19971 3.84912 4.93311 4.19189 4.146 4.66797C3.27002 5.18213 2.90186 5.75342 2.95898 6.69287L2.96533 7.14355H4.43799V6.77539C4.43799 6.14062 4.67285 5.81055 5.50439 5.32812C6.36768 4.81396 6.8501 4.13477 6.8501 3.16357C6.8501 1.76709 5.68848 0.76416 3.94922 0.76416C2.06396 0.76416 1.0293 1.85596 0.978516 3.34766ZM3.7207 10.127C4.23486 10.127 4.64111 9.72705 4.64111 9.22559C4.64111 8.72412 4.23486 8.33057 3.7207 8.33057C3.20654 8.33057 2.79395 8.72412 2.79395 9.22559C2.79395 9.72705 3.20654 10.127 3.7207 10.127Z" fill="#A6A6A6"/>
</svg>
