<svg width="12" height="14" viewBox="0 0 12 14" fill="none" xmlns="http://www.w3.org/2000/svg">
<path fill-rule="evenodd" clip-rule="evenodd" d="M2.25 4.5C2.25 2.42893 3.92893 0.75 6 0.75C8.07107 0.75 9.75 2.42893 9.75 4.5V6C10.5784 6 11.25 6.67157 11.25 7.5V10C11.25 12.2091 9.45914 14 7.25 14H4.75C2.54086 14 0.75 12.2091 0.75 10V7.5C0.75 6.67157 1.42157 6 2.25 6L2.25 4.5ZM8.25 4.5V6H3.75V4.5C3.75 3.25736 4.75736 2.25 6 2.25C7.24264 2.25 8.25 3.25736 8.25 4.5ZM5.25 9.25C5.25 8.83579 5.58579 8.5 6 8.5C6.41421 8.5 6.75 8.83579 6.75 9.25C6.75 9.57655 6.5413 9.85436 6.25 9.95732V10.75C6.25 10.8881 6.13807 11 6 11C5.86193 11 5.75 10.8881 5.75 10.75V9.95732C5.4587 9.85436 5.25 9.57655 5.25 9.25Z" fill="#A6A6A6"/>
</svg>
