<svg width="45" height="15" viewBox="0 0 45 15" fill="none" xmlns="http://www.w3.org/2000/svg">
<path fill-rule="evenodd" clip-rule="evenodd" d="M11.6338 14.5576H7.83737L4.99054 3.69681C4.85542 3.19722 4.56852 2.75554 4.14649 2.54738C3.09328 2.02425 1.9327 1.60792 0.666626 1.39794V0.979802H6.7823C7.62636 0.979802 8.2594 1.60792 8.3649 2.3374L9.84199 10.1717L13.6365 0.979802H17.3274L11.6338 14.5576ZM19.4375 14.5576H15.8521L18.8045 0.979802H22.3898L19.4375 14.5576ZM27.0285 4.74127C27.134 4.00997 27.767 3.59183 28.5055 3.59183C29.6661 3.48684 30.9303 3.69682 31.9854 4.21814L32.6184 1.29477C31.5634 0.876632 30.4028 0.666656 29.3496 0.666656C25.8697 0.666656 23.3376 2.54739 23.3376 5.1576C23.3376 7.14331 25.1312 8.18595 26.3973 8.81407C27.767 9.44037 28.2945 9.85851 28.189 10.4848C28.189 11.4243 27.134 11.8424 26.0807 11.8424C24.8147 11.8424 23.5486 11.5293 22.3899 11.0061L21.7568 13.9313C23.0229 14.4526 24.3926 14.6626 25.6587 14.6626C29.5606 14.7658 31.9854 12.8869 31.9854 10.0667C31.9854 6.5152 27.0285 6.30703 27.0285 4.74127ZM44.5333 14.5576L41.6865 0.979802H38.6286C37.9956 0.979802 37.3625 1.39794 37.1515 2.02425L31.8799 14.5576H35.5708L36.3075 12.5737H40.8424L41.2644 14.5576H44.5333ZM39.1562 4.63629L40.2094 9.75353H37.2571L39.1562 4.63629Z" fill="#172B85"/>
</svg>
